<svg xmlns="http://www.w3.org/2000/svg" width="85" height="60" viewBox="0 0 85 60" fill="none">
  <rect width="85" height="60" rx="15" fill="url(#paint0_linear_1_158)"/>
  <path d="M57.1229 26.7384C56.3841 25.9383 55.3134 25.4793 54.1845 25.4793H54.073C53.4262 20.0069 48.475 15.7375 42.4803 15.7375C36.4856 15.7375 31.5343 20.0069 30.8876 25.4793H30.815C29.6873 25.4793 28.618 25.9383 27.8779 26.7384C27.1378 27.5384 26.806 28.599 26.9654 29.6499L28.3406 38.6902C28.885 42.2666 32.1954 44.9627 36.0398 44.9627H48.961C52.8054 44.9627 56.1157 42.2654 56.6601 38.6902L58.0353 29.6499C58.1948 28.6003 57.8617 27.5396 57.1229 26.7384ZM42.4803 18.173C47.0427 18.173 50.8288 21.3549 51.46 25.4793H33.5006C34.1318 21.3549 37.9179 18.173 42.4803 18.173ZM37.2957 38.8741C37.2957 39.5475 36.7163 40.0918 35.9996 40.0918C35.2828 40.0918 34.7034 39.5475 34.7034 38.8741V31.5678C34.7034 30.8944 35.2828 30.3501 35.9996 30.3501C36.7163 30.3501 37.2957 30.8944 37.2957 31.5678V38.8741ZM43.7764 38.8741C43.7764 39.5475 43.1971 40.0918 42.4803 40.0918C41.7635 40.0918 41.1842 39.5475 41.1842 38.8741V31.5678C41.1842 30.8944 41.7635 30.3501 42.4803 30.3501C43.1971 30.3501 43.7764 30.8944 43.7764 31.5678V38.8741ZM50.2572 38.8741C50.2572 39.5475 49.6778 40.0918 48.961 40.0918C48.2443 40.0918 47.6649 39.5475 47.6649 38.8741V31.5678C47.6649 30.8944 48.2443 30.3501 48.961 30.3501C49.6778 30.3501 50.2572 30.8944 50.2572 31.5678V38.8741Z" fill="#FBFBFB"/>
  <defs>
    <linearGradient id="paint0_linear_1_158" x1="87.1037" y1="60" x2="-2.79051" y2="60" gradientUnits="userSpaceOnUse">
      <stop stop-color="#FF5A2F"/>
      <stop offset="1" stop-color="#FF6C44"/>
    </linearGradient>
  </defs>
</svg>