<svg xmlns="http://www.w3.org/2000/svg" width="50" height="50" viewBox="0 0 50 50" fill="none">
  <path d="M50 25C50 38.8071 38.8071 50 25 50C11.1929 50 0 38.8071 0 25C0 11.1929 11.1929 0 25 0C38.8071 0 50 11.1929 50 25Z" fill="#343434"/>
  <path d="M30.1169 26.375L30.7278 22.3935H26.9084V19.8098C26.9084 18.7205 27.4419 17.6588 29.1525 17.6588H30.8889V14.269C30.8889 14.269 29.3132 14 27.8066 14C24.6612 14 22.6053 15.907 22.6053 19.3591V22.3935H19.1089V26.375H22.6053V36H26.9084V26.375H30.1169Z" fill="#E6E6E6"/>
</svg>