<svg xmlns="http://www.w3.org/2000/svg" width="185" height="48" viewBox="0 0 185 48" fill="none">
  <mask id="path-1-inside-1_1_24" fill="white">
    <path d="M17.9799 15.38C21.9799 15.38 25.2999 16.92 27.9399 20C30.6199 23.04 31.9599 26.76 31.9599 31.16V41.72C31.9599 42.64 31.9199 43.34 31.8399 43.82C31.7999 44.26 31.6399 44.76 31.3599 45.32C30.7999 46.4 29.2399 46.94 26.6799 46.94C23.8399 46.94 22.1999 46.2 21.7599 44.72C21.5199 44.04 21.3999 43.02 21.3999 41.66V31.1C21.3999 29.46 20.9199 28.18 19.9599 27.26C19.0399 26.34 17.7799 25.88 16.1799 25.88C14.6199 25.88 13.3399 26.36 12.3399 27.32C11.3799 28.28 10.8999 29.54 10.8999 31.1V41.72C10.8999 42.64 10.8599 43.34 10.7799 43.82C10.7399 44.26 10.5599 44.76 10.2399 45.32C9.7199 46.4 8.1799 46.94 5.6199 46.94C3.0999 46.94 1.5599 46.4 0.999902 45.32C0.719902 44.72 0.539902 44.2 0.459902 43.76C0.419902 43.28 0.399902 42.58 0.399902 41.66V20.42C0.399902 19.54 0.419902 18.88 0.459902 18.44C0.539902 17.96 0.739902 17.44 1.0599 16.88C1.6199 15.88 3.1599 15.38 5.6799 15.38C8.1199 15.38 9.6199 15.84 10.1799 16.76C10.5799 17.44 10.7799 18.26 10.7799 19.22C10.9399 18.94 11.2999 18.54 11.8599 18.02C12.4199 17.5 12.9599 17.08 13.4799 16.76C14.8399 15.84 16.3399 15.38 17.9799 15.38Z"/>
    <path d="M57.3066 18.74C57.5466 16.5 59.1266 15.38 62.0466 15.38C63.6066 15.38 64.7666 15.5 65.5266 15.74C66.2866 15.98 66.8066 16.4 67.0866 17C67.4066 17.6 67.5866 18.14 67.6266 18.62C67.7066 19.06 67.7466 19.74 67.7466 20.66V41.66C67.7466 42.58 67.7066 43.28 67.6266 43.76C67.5866 44.2 67.4266 44.72 67.1466 45.32C66.5866 46.36 65.2066 46.88 63.0066 46.88C60.8466 46.88 59.3866 46.62 58.6266 46.1C57.9066 45.54 57.4866 44.74 57.3666 43.7C55.8866 45.82 53.4066 46.88 49.9266 46.88C46.4866 46.88 43.2866 45.3 40.3266 42.14C37.3666 38.98 35.8866 35.32 35.8866 31.16C35.8866 26.96 37.3666 23.3 40.3266 20.18C43.3266 17.02 46.6066 15.44 50.1666 15.44C51.5266 15.44 52.7666 15.68 53.8866 16.16C55.0066 16.64 55.7866 17.1 56.2266 17.54C56.6666 17.94 57.0266 18.34 57.3066 18.74ZM46.3866 31.22C46.3866 32.54 46.9066 33.74 47.9466 34.82C48.9866 35.86 50.2466 36.38 51.7266 36.38C53.2066 36.38 54.4266 35.84 55.3866 34.76C56.3866 33.68 56.8866 32.5 56.8866 31.22C56.8866 29.9 56.4066 28.68 55.4466 27.56C54.5266 26.44 53.2666 25.88 51.6666 25.88C50.1066 25.88 48.8266 26.44 47.8266 27.56C46.8666 28.68 46.3866 29.9 46.3866 31.22Z"/>
    <path d="M91.1288 31.16L99.1088 37.76C100.109 38.6 100.729 39.24 100.969 39.68C101.249 40.12 101.389 40.54 101.389 40.94C101.389 41.9 100.769 43.2 99.5288 44.84C98.1688 46.52 96.9688 47.36 95.9288 47.36C95.0488 47.36 93.8288 46.78 92.2688 45.62L91.6688 45.2C90.7488 44.44 89.3288 43.12 87.4088 41.24C85.4888 39.32 84.0288 37.96 83.0288 37.16V41.78C83.0288 42.7 82.9888 43.4 82.9088 43.88C82.8688 44.32 82.6888 44.84 82.3688 45.44C81.8488 46.48 80.3088 47 77.7488 47C75.2288 47 73.6888 46.46 73.1288 45.38C72.8488 44.78 72.6688 44.26 72.5888 43.82C72.5488 43.34 72.5288 42.64 72.5288 41.72V5.78C72.5288 4.86 72.5488 4.18 72.5888 3.74C72.6688 3.26 72.8488 2.72 73.1288 2.12C73.6888 1.04 75.2488 0.5 77.8088 0.5C79.7288 0.5 81.0888 0.84 81.8888 1.52C82.5688 2.08 82.9288 2.96 82.9688 4.16C83.0088 4.52 83.0288 5.08 83.0288 5.84V24.86C83.7488 24.26 84.8288 23.24 86.2688 21.8C87.7488 20.36 88.8488 19.34 89.5688 18.74L90.2888 18.26C91.6888 17.18 92.8888 16.64 93.8888 16.64C94.8888 16.64 96.0288 17.46 97.3088 19.1C98.6288 20.7 99.2888 21.96 99.2888 22.88C99.2888 23.8 98.5488 24.88 97.0688 26.12L91.1288 31.16Z"/>
    <path d="M123.4 18.74C123.64 16.5 125.22 15.38 128.14 15.38C129.7 15.38 130.86 15.5 131.62 15.74C132.38 15.98 132.9 16.4 133.18 17C133.5 17.6 133.68 18.14 133.72 18.62C133.8 19.06 133.84 19.74 133.84 20.66V41.66C133.84 42.58 133.8 43.28 133.72 43.76C133.68 44.2 133.52 44.72 133.24 45.32C132.68 46.36 131.3 46.88 129.1 46.88C126.94 46.88 125.48 46.62 124.72 46.1C124 45.54 123.58 44.74 123.46 43.7C121.98 45.82 119.5 46.88 116.02 46.88C112.58 46.88 109.38 45.3 106.42 42.14C103.46 38.98 101.98 35.32 101.98 31.16C101.98 26.96 103.46 23.3 106.42 20.18C109.42 17.02 112.7 15.44 116.26 15.44C117.62 15.44 118.86 15.68 119.98 16.16C121.1 16.64 121.88 17.1 122.32 17.54C122.76 17.94 123.12 18.34 123.4 18.74ZM112.48 31.22C112.48 32.54 113 33.74 114.04 34.82C115.08 35.86 116.34 36.38 117.82 36.38C119.3 36.38 120.52 35.84 121.48 34.76C122.48 33.68 122.98 32.5 122.98 31.22C122.98 29.9 122.5 28.68 121.54 27.56C120.62 26.44 119.36 25.88 117.76 25.88C116.2 25.88 114.92 26.44 113.92 27.56C112.96 28.68 112.48 29.9 112.48 31.22Z"/>
    <path d="M148.943 19.58C150.823 16.74 153.083 15.32 155.723 15.32C159.803 15.32 162.843 17.06 164.843 20.54C165.283 19.94 165.803 19.32 166.403 18.68C167.043 18 168.043 17.28 169.403 16.52C170.763 15.72 172.163 15.32 173.603 15.32C176.803 15.32 179.483 16.56 181.643 19.04C183.803 21.48 184.883 25.54 184.883 31.22V41.72C184.883 42.64 184.843 43.34 184.763 43.82C184.723 44.26 184.543 44.78 184.223 45.38C183.703 46.46 182.163 47 179.603 47C177.083 47 175.543 46.44 174.983 45.32C174.703 44.72 174.523 44.2 174.443 43.76C174.403 43.28 174.383 42.58 174.383 41.66V31.16C174.383 27.68 173.143 25.94 170.663 25.94C169.263 25.94 168.303 26.4 167.783 27.32C167.303 28.24 167.063 29.54 167.063 31.22V41.72C167.063 42.68 167.023 43.38 166.943 43.82C166.903 44.26 166.723 44.78 166.403 45.38C165.843 46.46 164.283 47 161.723 47C159.203 47 157.663 46.44 157.103 45.32C156.823 44.72 156.643 44.2 156.563 43.76C156.523 43.28 156.503 42.58 156.503 41.66V31.16C156.503 27.68 155.263 25.94 152.783 25.94C150.383 25.94 149.183 27.68 149.183 31.16V41.78C149.183 42.7 149.143 43.4 149.063 43.88C149.023 44.32 148.843 44.84 148.523 45.44C147.923 46.48 146.363 47 143.843 47C141.323 47 139.783 46.46 139.223 45.38C138.943 44.78 138.763 44.26 138.683 43.82C138.643 43.38 138.623 42.68 138.623 41.72V20.6C138.623 19.68 138.643 19 138.683 18.56C138.763 18.08 138.963 17.56 139.283 17C139.883 15.92 141.303 15.38 143.543 15.38C145.783 15.38 147.243 15.74 147.923 16.46C148.603 17.18 148.943 18.22 148.943 19.58Z"/>
  </mask>
  <path d="M17.9799 15.38C21.9799 15.38 25.2999 16.92 27.9399 20C30.6199 23.04 31.9599 26.76 31.9599 31.16V41.72C31.9599 42.64 31.9199 43.34 31.8399 43.82C31.7999 44.26 31.6399 44.76 31.3599 45.32C30.7999 46.4 29.2399 46.94 26.6799 46.94C23.8399 46.94 22.1999 46.2 21.7599 44.72C21.5199 44.04 21.3999 43.02 21.3999 41.66V31.1C21.3999 29.46 20.9199 28.18 19.9599 27.26C19.0399 26.34 17.7799 25.88 16.1799 25.88C14.6199 25.88 13.3399 26.36 12.3399 27.32C11.3799 28.28 10.8999 29.54 10.8999 31.1V41.72C10.8999 42.64 10.8599 43.34 10.7799 43.82C10.7399 44.26 10.5599 44.76 10.2399 45.32C9.7199 46.4 8.1799 46.94 5.6199 46.94C3.0999 46.94 1.5599 46.4 0.999902 45.32C0.719902 44.72 0.539902 44.2 0.459902 43.76C0.419902 43.28 0.399902 42.58 0.399902 41.66V20.42C0.399902 19.54 0.419902 18.88 0.459902 18.44C0.539902 17.96 0.739902 17.44 1.0599 16.88C1.6199 15.88 3.1599 15.38 5.6799 15.38C8.1199 15.38 9.6199 15.84 10.1799 16.76C10.5799 17.44 10.7799 18.26 10.7799 19.22C10.9399 18.94 11.2999 18.54 11.8599 18.02C12.4199 17.5 12.9599 17.08 13.4799 16.76C14.8399 15.84 16.3399 15.38 17.9799 15.38Z" fill="white"/>
  <path d="M57.3066 18.74C57.5466 16.5 59.1266 15.38 62.0466 15.38C63.6066 15.38 64.7666 15.5 65.5266 15.74C66.2866 15.98 66.8066 16.4 67.0866 17C67.4066 17.6 67.5866 18.14 67.6266 18.62C67.7066 19.06 67.7466 19.74 67.7466 20.66V41.66C67.7466 42.58 67.7066 43.28 67.6266 43.76C67.5866 44.2 67.4266 44.72 67.1466 45.32C66.5866 46.36 65.2066 46.88 63.0066 46.88C60.8466 46.88 59.3866 46.62 58.6266 46.1C57.9066 45.54 57.4866 44.74 57.3666 43.7C55.8866 45.82 53.4066 46.88 49.9266 46.88C46.4866 46.88 43.2866 45.3 40.3266 42.14C37.3666 38.98 35.8866 35.32 35.8866 31.16C35.8866 26.96 37.3666 23.3 40.3266 20.18C43.3266 17.02 46.6066 15.44 50.1666 15.44C51.5266 15.44 52.7666 15.68 53.8866 16.16C55.0066 16.64 55.7866 17.1 56.2266 17.54C56.6666 17.94 57.0266 18.34 57.3066 18.74ZM46.3866 31.22C46.3866 32.54 46.9066 33.74 47.9466 34.82C48.9866 35.86 50.2466 36.38 51.7266 36.38C53.2066 36.38 54.4266 35.84 55.3866 34.76C56.3866 33.68 56.8866 32.5 56.8866 31.22C56.8866 29.9 56.4066 28.68 55.4466 27.56C54.5266 26.44 53.2666 25.88 51.6666 25.88C50.1066 25.88 48.8266 26.44 47.8266 27.56C46.8666 28.68 46.3866 29.9 46.3866 31.22Z" fill="white"/>
  <path d="M91.1288 31.16L99.1088 37.76C100.109 38.6 100.729 39.24 100.969 39.68C101.249 40.12 101.389 40.54 101.389 40.94C101.389 41.9 100.769 43.2 99.5288 44.84C98.1688 46.52 96.9688 47.36 95.9288 47.36C95.0488 47.36 93.8288 46.78 92.2688 45.62L91.6688 45.2C90.7488 44.44 89.3288 43.12 87.4088 41.24C85.4888 39.32 84.0288 37.96 83.0288 37.16V41.78C83.0288 42.7 82.9888 43.4 82.9088 43.88C82.8688 44.32 82.6888 44.84 82.3688 45.44C81.8488 46.48 80.3088 47 77.7488 47C75.2288 47 73.6888 46.46 73.1288 45.38C72.8488 44.78 72.6688 44.26 72.5888 43.82C72.5488 43.34 72.5288 42.64 72.5288 41.72V5.78C72.5288 4.86 72.5488 4.18 72.5888 3.74C72.6688 3.26 72.8488 2.72 73.1288 2.12C73.6888 1.04 75.2488 0.5 77.8088 0.5C79.7288 0.5 81.0888 0.84 81.8888 1.52C82.5688 2.08 82.9288 2.96 82.9688 4.16C83.0088 4.52 83.0288 5.08 83.0288 5.84V24.86C83.7488 24.26 84.8288 23.24 86.2688 21.8C87.7488 20.36 88.8488 19.34 89.5688 18.74L90.2888 18.26C91.6888 17.18 92.8888 16.64 93.8888 16.64C94.8888 16.64 96.0288 17.46 97.3088 19.1C98.6288 20.7 99.2888 21.96 99.2888 22.88C99.2888 23.8 98.5488 24.88 97.0688 26.12L91.1288 31.16Z" fill="white"/>
  <path d="M123.4 18.74C123.64 16.5 125.22 15.38 128.14 15.38C129.7 15.38 130.86 15.5 131.62 15.74C132.38 15.98 132.9 16.4 133.18 17C133.5 17.6 133.68 18.14 133.72 18.62C133.8 19.06 133.84 19.74 133.84 20.66V41.66C133.84 42.58 133.8 43.28 133.72 43.76C133.68 44.2 133.52 44.72 133.24 45.32C132.68 46.36 131.3 46.88 129.1 46.88C126.94 46.88 125.48 46.62 124.72 46.1C124 45.54 123.58 44.74 123.46 43.7C121.98 45.82 119.5 46.88 116.02 46.88C112.58 46.88 109.38 45.3 106.42 42.14C103.46 38.98 101.98 35.32 101.98 31.16C101.98 26.96 103.46 23.3 106.42 20.18C109.42 17.02 112.7 15.44 116.26 15.44C117.62 15.44 118.86 15.68 119.98 16.16C121.1 16.64 121.88 17.1 122.32 17.54C122.76 17.94 123.12 18.34 123.4 18.74ZM112.48 31.22C112.48 32.54 113 33.74 114.04 34.82C115.08 35.86 116.34 36.38 117.82 36.38C119.3 36.38 120.52 35.84 121.48 34.76C122.48 33.68 122.98 32.5 122.98 31.22C122.98 29.9 122.5 28.68 121.54 27.56C120.62 26.44 119.36 25.88 117.76 25.88C116.2 25.88 114.92 26.44 113.92 27.56C112.96 28.68 112.48 29.9 112.48 31.22Z" fill="white"/>
  <path d="M148.943 19.58C150.823 16.74 153.083 15.32 155.723 15.32C159.803 15.32 162.843 17.06 164.843 20.54C165.283 19.94 165.803 19.32 166.403 18.68C167.043 18 168.043 17.28 169.403 16.52C170.763 15.72 172.163 15.32 173.603 15.32C176.803 15.32 179.483 16.56 181.643 19.04C183.803 21.48 184.883 25.54 184.883 31.22V41.72C184.883 42.64 184.843 43.34 184.763 43.82C184.723 44.26 184.543 44.78 184.223 45.38C183.703 46.46 182.163 47 179.603 47C177.083 47 175.543 46.44 174.983 45.32C174.703 44.72 174.523 44.2 174.443 43.76C174.403 43.28 174.383 42.58 174.383 41.66V31.16C174.383 27.68 173.143 25.94 170.663 25.94C169.263 25.94 168.303 26.4 167.783 27.32C167.303 28.24 167.063 29.54 167.063 31.22V41.72C167.063 42.68 167.023 43.38 166.943 43.82C166.903 44.26 166.723 44.78 166.403 45.38C165.843 46.46 164.283 47 161.723 47C159.203 47 157.663 46.44 157.103 45.32C156.823 44.72 156.643 44.2 156.563 43.76C156.523 43.28 156.503 42.58 156.503 41.66V31.16C156.503 27.68 155.263 25.94 152.783 25.94C150.383 25.94 149.183 27.68 149.183 31.16V41.78C149.183 42.7 149.143 43.4 149.063 43.88C149.023 44.32 148.843 44.84 148.523 45.44C147.923 46.48 146.363 47 143.843 47C141.323 47 139.783 46.46 139.223 45.38C138.943 44.78 138.763 44.26 138.683 43.82C138.643 43.38 138.623 42.68 138.623 41.72V20.6C138.623 19.68 138.643 19 138.683 18.56C138.763 18.08 138.963 17.56 139.283 17C139.883 15.92 141.303 15.38 143.543 15.38C145.783 15.38 147.243 15.74 147.923 16.46C148.603 17.18 148.943 18.22 148.943 19.58Z" fill="white"/>
  <path d="M17.9799 15.38C21.9799 15.38 25.2999 16.92 27.9399 20C30.6199 23.04 31.9599 26.76 31.9599 31.16V41.72C31.9599 42.64 31.9199 43.34 31.8399 43.82C31.7999 44.26 31.6399 44.76 31.3599 45.32C30.7999 46.4 29.2399 46.94 26.6799 46.94C23.8399 46.94 22.1999 46.2 21.7599 44.72C21.5199 44.04 21.3999 43.02 21.3999 41.66V31.1C21.3999 29.46 20.9199 28.18 19.9599 27.26C19.0399 26.34 17.7799 25.88 16.1799 25.88C14.6199 25.88 13.3399 26.36 12.3399 27.32C11.3799 28.28 10.8999 29.54 10.8999 31.1V41.72C10.8999 42.64 10.8599 43.34 10.7799 43.82C10.7399 44.26 10.5599 44.76 10.2399 45.32C9.7199 46.4 8.1799 46.94 5.6199 46.94C3.0999 46.94 1.5599 46.4 0.999902 45.32C0.719902 44.72 0.539902 44.2 0.459902 43.76C0.419902 43.28 0.399902 42.58 0.399902 41.66V20.42C0.399902 19.54 0.419902 18.88 0.459902 18.44C0.539902 17.96 0.739902 17.44 1.0599 16.88C1.6199 15.88 3.1599 15.38 5.6799 15.38C8.1199 15.38 9.6199 15.84 10.1799 16.76C10.5799 17.44 10.7799 18.26 10.7799 19.22C10.9399 18.94 11.2999 18.54 11.8599 18.02C12.4199 17.5 12.9599 17.08 13.4799 16.76C14.8399 15.84 16.3399 15.38 17.9799 15.38Z" stroke="#1E1E1E" stroke-width="3" mask="url(#path-1-inside-1_1_24)"/>
  <path d="M57.3066 18.74C57.5466 16.5 59.1266 15.38 62.0466 15.38C63.6066 15.38 64.7666 15.5 65.5266 15.74C66.2866 15.98 66.8066 16.4 67.0866 17C67.4066 17.6 67.5866 18.14 67.6266 18.62C67.7066 19.06 67.7466 19.74 67.7466 20.66V41.66C67.7466 42.58 67.7066 43.28 67.6266 43.76C67.5866 44.2 67.4266 44.72 67.1466 45.32C66.5866 46.36 65.2066 46.88 63.0066 46.88C60.8466 46.88 59.3866 46.62 58.6266 46.1C57.9066 45.54 57.4866 44.74 57.3666 43.7C55.8866 45.82 53.4066 46.88 49.9266 46.88C46.4866 46.88 43.2866 45.3 40.3266 42.14C37.3666 38.98 35.8866 35.32 35.8866 31.16C35.8866 26.96 37.3666 23.3 40.3266 20.18C43.3266 17.02 46.6066 15.44 50.1666 15.44C51.5266 15.44 52.7666 15.68 53.8866 16.16C55.0066 16.64 55.7866 17.1 56.2266 17.54C56.6666 17.94 57.0266 18.34 57.3066 18.74ZM46.3866 31.22C46.3866 32.54 46.9066 33.74 47.9466 34.82C48.9866 35.86 50.2466 36.38 51.7266 36.38C53.2066 36.38 54.4266 35.84 55.3866 34.76C56.3866 33.68 56.8866 32.5 56.8866 31.22C56.8866 29.9 56.4066 28.68 55.4466 27.56C54.5266 26.44 53.2666 25.88 51.6666 25.88C50.1066 25.88 48.8266 26.44 47.8266 27.56C46.8666 28.68 46.3866 29.9 46.3866 31.22Z" stroke="#1E1E1E" stroke-width="3" mask="url(#path-1-inside-1_1_24)"/>
  <path d="M91.1288 31.16L99.1088 37.76C100.109 38.6 100.729 39.24 100.969 39.68C101.249 40.12 101.389 40.54 101.389 40.94C101.389 41.9 100.769 43.2 99.5288 44.84C98.1688 46.52 96.9688 47.36 95.9288 47.36C95.0488 47.36 93.8288 46.78 92.2688 45.62L91.6688 45.2C90.7488 44.44 89.3288 43.12 87.4088 41.24C85.4888 39.32 84.0288 37.96 83.0288 37.16V41.78C83.0288 42.7 82.9888 43.4 82.9088 43.88C82.8688 44.32 82.6888 44.84 82.3688 45.44C81.8488 46.48 80.3088 47 77.7488 47C75.2288 47 73.6888 46.46 73.1288 45.38C72.8488 44.78 72.6688 44.26 72.5888 43.82C72.5488 43.34 72.5288 42.64 72.5288 41.72V5.78C72.5288 4.86 72.5488 4.18 72.5888 3.74C72.6688 3.26 72.8488 2.72 73.1288 2.12C73.6888 1.04 75.2488 0.5 77.8088 0.5C79.7288 0.5 81.0888 0.84 81.8888 1.52C82.5688 2.08 82.9288 2.96 82.9688 4.16C83.0088 4.52 83.0288 5.08 83.0288 5.84V24.86C83.7488 24.26 84.8288 23.24 86.2688 21.8C87.7488 20.36 88.8488 19.34 89.5688 18.74L90.2888 18.26C91.6888 17.18 92.8888 16.64 93.8888 16.64C94.8888 16.64 96.0288 17.46 97.3088 19.1C98.6288 20.7 99.2888 21.96 99.2888 22.88C99.2888 23.8 98.5488 24.88 97.0688 26.12L91.1288 31.16Z" stroke="#1E1E1E" stroke-width="3" mask="url(#path-1-inside-1_1_24)"/>
  <path d="M123.4 18.74C123.64 16.5 125.22 15.38 128.14 15.38C129.7 15.38 130.86 15.5 131.62 15.74C132.38 15.98 132.9 16.4 133.18 17C133.5 17.6 133.68 18.14 133.72 18.62C133.8 19.06 133.84 19.74 133.84 20.66V41.66C133.84 42.58 133.8 43.28 133.72 43.76C133.68 44.2 133.52 44.72 133.24 45.32C132.68 46.36 131.3 46.88 129.1 46.88C126.94 46.88 125.48 46.62 124.72 46.1C124 45.54 123.58 44.74 123.46 43.7C121.98 45.82 119.5 46.88 116.02 46.88C112.58 46.88 109.38 45.3 106.42 42.14C103.46 38.98 101.98 35.32 101.98 31.16C101.98 26.96 103.46 23.3 106.42 20.18C109.42 17.02 112.7 15.44 116.26 15.44C117.62 15.44 118.86 15.68 119.98 16.16C121.1 16.64 121.88 17.1 122.32 17.54C122.76 17.94 123.12 18.34 123.4 18.74ZM112.48 31.22C112.48 32.54 113 33.74 114.04 34.82C115.08 35.86 116.34 36.38 117.82 36.38C119.3 36.38 120.52 35.84 121.48 34.76C122.48 33.68 122.98 32.5 122.98 31.22C122.98 29.9 122.5 28.68 121.54 27.56C120.62 26.44 119.36 25.88 117.76 25.88C116.2 25.88 114.92 26.44 113.92 27.56C112.96 28.68 112.48 29.9 112.48 31.22Z" stroke="#1E1E1E" stroke-width="3" mask="url(#path-1-inside-1_1_24)"/>
  <path d="M148.943 19.58C150.823 16.74 153.083 15.32 155.723 15.32C159.803 15.32 162.843 17.06 164.843 20.54C165.283 19.94 165.803 19.32 166.403 18.68C167.043 18 168.043 17.28 169.403 16.52C170.763 15.72 172.163 15.32 173.603 15.32C176.803 15.32 179.483 16.56 181.643 19.04C183.803 21.48 184.883 25.54 184.883 31.22V41.72C184.883 42.64 184.843 43.34 184.763 43.82C184.723 44.26 184.543 44.78 184.223 45.38C183.703 46.46 182.163 47 179.603 47C177.083 47 175.543 46.44 174.983 45.32C174.703 44.72 174.523 44.2 174.443 43.76C174.403 43.28 174.383 42.58 174.383 41.66V31.16C174.383 27.68 173.143 25.94 170.663 25.94C169.263 25.94 168.303 26.4 167.783 27.32C167.303 28.24 167.063 29.54 167.063 31.22V41.72C167.063 42.68 167.023 43.38 166.943 43.82C166.903 44.26 166.723 44.78 166.403 45.38C165.843 46.46 164.283 47 161.723 47C159.203 47 157.663 46.44 157.103 45.32C156.823 44.72 156.643 44.2 156.563 43.76C156.523 43.28 156.503 42.58 156.503 41.66V31.16C156.503 27.68 155.263 25.94 152.783 25.94C150.383 25.94 149.183 27.68 149.183 31.16V41.78C149.183 42.7 149.143 43.4 149.063 43.88C149.023 44.32 148.843 44.84 148.523 45.44C147.923 46.48 146.363 47 143.843 47C141.323 47 139.783 46.46 139.223 45.38C138.943 44.78 138.763 44.26 138.683 43.82C138.643 43.38 138.623 42.68 138.623 41.72V20.6C138.623 19.68 138.643 19 138.683 18.56C138.763 18.08 138.963 17.56 139.283 17C139.883 15.92 141.303 15.38 143.543 15.38C145.783 15.38 147.243 15.74 147.923 16.46C148.603 17.18 148.943 18.22 148.943 19.58Z" stroke="#1E1E1E" stroke-width="3" mask="url(#path-1-inside-1_1_24)"/>
</svg>