<svg xmlns="http://www.w3.org/2000/svg" width="50" height="50" viewBox="0 0 50 50" fill="none">
  <path d="M50 25C50 38.8071 38.8071 50 25 50C11.1929 50 0 38.8071 0 25C0 11.1929 11.1929 0 25 0C38.8071 0 50 11.1929 50 25Z" fill="#343434"/>
  <path d="M25.0025 19.3595C21.881 19.3595 19.3632 21.8778 19.3632 25C19.3632 28.1222 21.881 30.6405 25.0025 30.6405C28.1239 30.6405 30.6417 28.1222 30.6417 25C30.6417 21.8778 28.1239 19.3595 25.0025 19.3595ZM25.0025 28.6671C22.9853 28.6671 21.3362 27.0225 21.3362 25C21.3362 22.9775 22.9804 21.3329 25.0025 21.3329C27.0245 21.3329 28.6687 22.9775 28.6687 25C28.6687 27.0225 27.0196 28.6671 25.0025 28.6671ZM32.1877 19.1288C32.1877 19.8602 31.5988 20.4444 30.8724 20.4444C30.1411 20.4444 29.5571 19.8553 29.5571 19.1288C29.5571 18.4022 30.146 17.8131 30.8724 17.8131C31.5988 17.8131 32.1877 18.4022 32.1877 19.1288ZM35.9227 20.464C35.8393 18.7017 35.4368 17.1406 34.146 15.8544C32.8601 14.5682 31.2994 14.1657 29.5374 14.0773C27.7215 13.9742 22.2785 13.9742 20.4626 14.0773C18.7055 14.1608 17.1448 14.5633 15.854 15.8495C14.5632 17.1357 14.1656 18.6968 14.0773 20.4591C13.9742 22.2755 13.9742 27.7196 14.0773 29.536C14.1607 31.2983 14.5632 32.8594 15.854 34.1456C17.1448 35.4318 18.7006 35.8343 20.4626 35.9227C22.2785 36.0258 27.7215 36.0258 29.5374 35.9227C31.2994 35.8392 32.8601 35.4367 34.146 34.1456C35.4319 32.8594 35.8344 31.2983 35.9227 29.536C36.0258 27.7196 36.0258 22.2804 35.9227 20.464ZM33.5767 31.4849C33.1939 32.4471 32.4528 33.1883 31.4859 33.5761C30.038 34.1505 26.6025 34.018 25.0025 34.018C23.4025 34.018 19.962 34.1456 18.519 33.5761C17.5571 33.1932 16.816 32.452 16.4282 31.4849C15.854 30.0367 15.9865 26.6004 15.9865 25C15.9865 23.3996 15.8589 19.9584 16.4282 18.5151C16.811 17.5529 17.5521 16.8117 18.519 16.4239C19.9669 15.8495 23.4025 15.982 25.0025 15.982C26.6025 15.982 30.0429 15.8544 31.4859 16.4239C32.4479 16.8068 33.189 17.548 33.5767 18.5151C34.1509 19.9633 34.0184 23.3996 34.0184 25C34.0184 26.6004 34.1509 30.0416 33.5767 31.4849Z" fill="#E6E6E6"/>
</svg>