<svg xmlns="http://www.w3.org/2000/svg" width="185" height="48" viewBox="0 0 185 48" fill="none">
  <mask id="path-1-inside-1_1_153" fill="white">
    <path d="M17.98 15.38C21.98 15.38 25.3 16.92 27.94 20C30.62 23.04 31.96 26.76 31.96 31.16V41.72C31.96 42.64 31.92 43.34 31.84 43.82C31.8 44.26 31.64 44.76 31.36 45.32C30.8 46.4 29.24 46.94 26.68 46.94C23.84 46.94 22.2 46.2 21.76 44.72C21.52 44.04 21.4 43.02 21.4 41.66V31.1C21.4 29.46 20.92 28.18 19.96 27.26C19.04 26.34 17.78 25.88 16.18 25.88C14.62 25.88 13.34 26.36 12.34 27.32C11.38 28.28 10.9 29.54 10.9 31.1V41.72C10.9 42.64 10.86 43.34 10.78 43.82C10.74 44.26 10.56 44.76 10.24 45.32C9.72003 46.4 8.18003 46.94 5.62002 46.94C3.10002 46.94 1.56002 46.4 1.00002 45.32C0.720024 44.72 0.540024 44.2 0.460024 43.76C0.420024 43.28 0.400024 42.58 0.400024 41.66V20.42C0.400024 19.54 0.420024 18.88 0.460024 18.44C0.540024 17.96 0.740024 17.44 1.06002 16.88C1.62002 15.88 3.16002 15.38 5.68002 15.38C8.12002 15.38 9.62003 15.84 10.18 16.76C10.58 17.44 10.78 18.26 10.78 19.22C10.94 18.94 11.3 18.54 11.86 18.02C12.42 17.5 12.96 17.08 13.48 16.76C14.84 15.84 16.34 15.38 17.98 15.38Z"/>
    <path d="M57.3067 18.74C57.5467 16.5 59.1267 15.38 62.0467 15.38C63.6067 15.38 64.7667 15.5 65.5267 15.74C66.2867 15.98 66.8067 16.4 67.0867 17C67.4067 17.6 67.5867 18.14 67.6267 18.62C67.7067 19.06 67.7467 19.74 67.7467 20.66V41.66C67.7467 42.58 67.7067 43.28 67.6267 43.76C67.5867 44.2 67.4267 44.72 67.1467 45.32C66.5867 46.36 65.2067 46.88 63.0067 46.88C60.8467 46.88 59.3867 46.62 58.6267 46.1C57.9067 45.54 57.4867 44.74 57.3667 43.7C55.8867 45.82 53.4067 46.88 49.9267 46.88C46.4867 46.88 43.2867 45.3 40.3267 42.14C37.3667 38.98 35.8867 35.32 35.8867 31.16C35.8867 26.96 37.3667 23.3 40.3267 20.18C43.3267 17.02 46.6067 15.44 50.1667 15.44C51.5267 15.44 52.7667 15.68 53.8867 16.16C55.0067 16.64 55.7867 17.1 56.2267 17.54C56.6667 17.94 57.0267 18.34 57.3067 18.74ZM46.3867 31.22C46.3867 32.54 46.9067 33.74 47.9467 34.82C48.9867 35.86 50.2467 36.38 51.7267 36.38C53.2067 36.38 54.4267 35.84 55.3867 34.76C56.3867 33.68 56.8867 32.5 56.8867 31.22C56.8867 29.9 56.4067 28.68 55.4467 27.56C54.5267 26.44 53.2667 25.88 51.6667 25.88C50.1067 25.88 48.8267 26.44 47.8267 27.56C46.8667 28.68 46.3867 29.9 46.3867 31.22Z"/>
    <path d="M91.1289 31.16L99.1089 37.76C100.109 38.6 100.729 39.24 100.969 39.68C101.249 40.12 101.389 40.54 101.389 40.94C101.389 41.9 100.769 43.2 99.5289 44.84C98.1689 46.52 96.9689 47.36 95.9289 47.36C95.0489 47.36 93.8289 46.78 92.2689 45.62L91.6689 45.2C90.7489 44.44 89.3289 43.12 87.4089 41.24C85.4889 39.32 84.0289 37.96 83.0289 37.16V41.78C83.0289 42.7 82.9889 43.4 82.9089 43.88C82.8689 44.32 82.6889 44.84 82.3689 45.44C81.8489 46.48 80.3089 47 77.7489 47C75.2289 47 73.6889 46.46 73.1289 45.38C72.8489 44.78 72.6689 44.26 72.5889 43.82C72.5489 43.34 72.5289 42.64 72.5289 41.72V5.78C72.5289 4.86 72.5489 4.18 72.5889 3.74C72.6689 3.26 72.8489 2.72 73.1289 2.12C73.6889 1.04 75.2489 0.5 77.8089 0.5C79.7289 0.5 81.0889 0.84 81.8889 1.52C82.5689 2.08 82.9289 2.96 82.9689 4.16C83.0089 4.52 83.0289 5.08 83.0289 5.84V24.86C83.7489 24.26 84.8289 23.24 86.2689 21.8C87.7489 20.36 88.8489 19.34 89.5689 18.74L90.2889 18.26C91.6889 17.18 92.8889 16.64 93.8889 16.64C94.8889 16.64 96.0289 17.46 97.3089 19.1C98.6289 20.7 99.2889 21.96 99.2889 22.88C99.2889 23.8 98.5489 24.88 97.0689 26.12L91.1289 31.16Z"/>
    <path d="M123.4 18.74C123.64 16.5 125.22 15.38 128.14 15.38C129.701 15.38 130.861 15.5 131.62 15.74C132.38 15.98 132.9 16.4 133.18 17C133.501 17.6 133.681 18.14 133.721 18.62C133.801 19.06 133.84 19.74 133.84 20.66V41.66C133.84 42.58 133.801 43.28 133.721 43.76C133.681 44.2 133.52 44.72 133.24 45.32C132.68 46.36 131.3 46.88 129.1 46.88C126.94 46.88 125.48 46.62 124.72 46.1C124 45.54 123.58 44.74 123.46 43.7C121.98 45.82 119.5 46.88 116.02 46.88C112.58 46.88 109.38 45.3 106.42 42.14C103.46 38.98 101.98 35.32 101.98 31.16C101.98 26.96 103.46 23.3 106.42 20.18C109.42 17.02 112.7 15.44 116.26 15.44C117.62 15.44 118.86 15.68 119.98 16.16C121.1 16.64 121.88 17.1 122.32 17.54C122.76 17.94 123.12 18.34 123.4 18.74ZM112.48 31.22C112.48 32.54 113 33.74 114.04 34.82C115.08 35.86 116.34 36.38 117.82 36.38C119.3 36.38 120.52 35.84 121.48 34.76C122.48 33.68 122.98 32.5 122.98 31.22C122.98 29.9 122.5 28.68 121.54 27.56C120.62 26.44 119.36 25.88 117.76 25.88C116.2 25.88 114.92 26.44 113.92 27.56C112.96 28.68 112.48 29.9 112.48 31.22Z"/>
    <path d="M148.943 19.58C150.823 16.74 153.083 15.32 155.723 15.32C159.803 15.32 162.843 17.06 164.843 20.54C165.283 19.94 165.803 19.32 166.403 18.68C167.043 18 168.043 17.28 169.403 16.52C170.763 15.72 172.163 15.32 173.603 15.32C176.803 15.32 179.483 16.56 181.643 19.04C183.803 21.48 184.883 25.54 184.883 31.22V41.72C184.883 42.64 184.843 43.34 184.763 43.82C184.723 44.26 184.543 44.78 184.223 45.38C183.703 46.46 182.163 47 179.603 47C177.083 47 175.543 46.44 174.983 45.32C174.703 44.72 174.523 44.2 174.443 43.76C174.403 43.28 174.383 42.58 174.383 41.66V31.16C174.383 27.68 173.143 25.94 170.663 25.94C169.263 25.94 168.303 26.4 167.783 27.32C167.303 28.24 167.063 29.54 167.063 31.22V41.72C167.063 42.68 167.023 43.38 166.943 43.82C166.903 44.26 166.723 44.78 166.403 45.38C165.843 46.46 164.283 47 161.723 47C159.203 47 157.663 46.44 157.103 45.32C156.823 44.72 156.643 44.2 156.563 43.76C156.523 43.28 156.503 42.58 156.503 41.66V31.16C156.503 27.68 155.263 25.94 152.783 25.94C150.383 25.94 149.183 27.68 149.183 31.16V41.78C149.183 42.7 149.143 43.4 149.063 43.88C149.023 44.32 148.843 44.84 148.523 45.44C147.923 46.48 146.363 47 143.843 47C141.323 47 139.783 46.46 139.223 45.38C138.943 44.78 138.763 44.26 138.683 43.82C138.643 43.38 138.623 42.68 138.623 41.72V20.6C138.623 19.68 138.643 19 138.683 18.56C138.763 18.08 138.963 17.56 139.283 17C139.883 15.92 141.303 15.38 143.543 15.38C145.783 15.38 147.243 15.74 147.923 16.46C148.603 17.18 148.943 18.22 148.943 19.58Z"/>
  </mask>
  <path d="M17.98 15.38C21.98 15.38 25.3 16.92 27.94 20C30.62 23.04 31.96 26.76 31.96 31.16V41.72C31.96 42.64 31.92 43.34 31.84 43.82C31.8 44.26 31.64 44.76 31.36 45.32C30.8 46.4 29.24 46.94 26.68 46.94C23.84 46.94 22.2 46.2 21.76 44.72C21.52 44.04 21.4 43.02 21.4 41.66V31.1C21.4 29.46 20.92 28.18 19.96 27.26C19.04 26.34 17.78 25.88 16.18 25.88C14.62 25.88 13.34 26.36 12.34 27.32C11.38 28.28 10.9 29.54 10.9 31.1V41.72C10.9 42.64 10.86 43.34 10.78 43.82C10.74 44.26 10.56 44.76 10.24 45.32C9.72003 46.4 8.18003 46.94 5.62002 46.94C3.10002 46.94 1.56002 46.4 1.00002 45.32C0.720024 44.72 0.540024 44.2 0.460024 43.76C0.420024 43.28 0.400024 42.58 0.400024 41.66V20.42C0.400024 19.54 0.420024 18.88 0.460024 18.44C0.540024 17.96 0.740024 17.44 1.06002 16.88C1.62002 15.88 3.16002 15.38 5.68002 15.38C8.12002 15.38 9.62003 15.84 10.18 16.76C10.58 17.44 10.78 18.26 10.78 19.22C10.94 18.94 11.3 18.54 11.86 18.02C12.42 17.5 12.96 17.08 13.48 16.76C14.84 15.84 16.34 15.38 17.98 15.38Z" fill="black"/>
  <path d="M57.3067 18.74C57.5467 16.5 59.1267 15.38 62.0467 15.38C63.6067 15.38 64.7667 15.5 65.5267 15.74C66.2867 15.98 66.8067 16.4 67.0867 17C67.4067 17.6 67.5867 18.14 67.6267 18.62C67.7067 19.06 67.7467 19.74 67.7467 20.66V41.66C67.7467 42.58 67.7067 43.28 67.6267 43.76C67.5867 44.2 67.4267 44.72 67.1467 45.32C66.5867 46.36 65.2067 46.88 63.0067 46.88C60.8467 46.88 59.3867 46.62 58.6267 46.1C57.9067 45.54 57.4867 44.74 57.3667 43.7C55.8867 45.82 53.4067 46.88 49.9267 46.88C46.4867 46.88 43.2867 45.3 40.3267 42.14C37.3667 38.98 35.8867 35.32 35.8867 31.16C35.8867 26.96 37.3667 23.3 40.3267 20.18C43.3267 17.02 46.6067 15.44 50.1667 15.44C51.5267 15.44 52.7667 15.68 53.8867 16.16C55.0067 16.64 55.7867 17.1 56.2267 17.54C56.6667 17.94 57.0267 18.34 57.3067 18.74ZM46.3867 31.22C46.3867 32.54 46.9067 33.74 47.9467 34.82C48.9867 35.86 50.2467 36.38 51.7267 36.38C53.2067 36.38 54.4267 35.84 55.3867 34.76C56.3867 33.68 56.8867 32.5 56.8867 31.22C56.8867 29.9 56.4067 28.68 55.4467 27.56C54.5267 26.44 53.2667 25.88 51.6667 25.88C50.1067 25.88 48.8267 26.44 47.8267 27.56C46.8667 28.68 46.3867 29.9 46.3867 31.22Z" fill="black"/>
  <path d="M91.1289 31.16L99.1089 37.76C100.109 38.6 100.729 39.24 100.969 39.68C101.249 40.12 101.389 40.54 101.389 40.94C101.389 41.9 100.769 43.2 99.5289 44.84C98.1689 46.52 96.9689 47.36 95.9289 47.36C95.0489 47.36 93.8289 46.78 92.2689 45.62L91.6689 45.2C90.7489 44.44 89.3289 43.12 87.4089 41.24C85.4889 39.32 84.0289 37.96 83.0289 37.16V41.78C83.0289 42.7 82.9889 43.4 82.9089 43.88C82.8689 44.32 82.6889 44.84 82.3689 45.44C81.8489 46.48 80.3089 47 77.7489 47C75.2289 47 73.6889 46.46 73.1289 45.38C72.8489 44.78 72.6689 44.26 72.5889 43.82C72.5489 43.34 72.5289 42.64 72.5289 41.72V5.78C72.5289 4.86 72.5489 4.18 72.5889 3.74C72.6689 3.26 72.8489 2.72 73.1289 2.12C73.6889 1.04 75.2489 0.5 77.8089 0.5C79.7289 0.5 81.0889 0.84 81.8889 1.52C82.5689 2.08 82.9289 2.96 82.9689 4.16C83.0089 4.52 83.0289 5.08 83.0289 5.84V24.86C83.7489 24.26 84.8289 23.24 86.2689 21.8C87.7489 20.36 88.8489 19.34 89.5689 18.74L90.2889 18.26C91.6889 17.18 92.8889 16.64 93.8889 16.64C94.8889 16.64 96.0289 17.46 97.3089 19.1C98.6289 20.7 99.2889 21.96 99.2889 22.88C99.2889 23.8 98.5489 24.88 97.0689 26.12L91.1289 31.16Z" fill="black"/>
  <path d="M123.4 18.74C123.64 16.5 125.22 15.38 128.14 15.38C129.701 15.38 130.861 15.5 131.62 15.74C132.38 15.98 132.9 16.4 133.18 17C133.501 17.6 133.681 18.14 133.721 18.62C133.801 19.06 133.84 19.74 133.84 20.66V41.66C133.84 42.58 133.801 43.28 133.721 43.76C133.681 44.2 133.52 44.72 133.24 45.32C132.68 46.36 131.3 46.88 129.1 46.88C126.94 46.88 125.48 46.62 124.72 46.1C124 45.54 123.58 44.74 123.46 43.7C121.98 45.82 119.5 46.88 116.02 46.88C112.58 46.88 109.38 45.3 106.42 42.14C103.46 38.98 101.98 35.32 101.98 31.16C101.98 26.96 103.46 23.3 106.42 20.18C109.42 17.02 112.7 15.44 116.26 15.44C117.62 15.44 118.86 15.68 119.98 16.16C121.1 16.64 121.88 17.1 122.32 17.54C122.76 17.94 123.12 18.34 123.4 18.74ZM112.48 31.22C112.48 32.54 113 33.74 114.04 34.82C115.08 35.86 116.34 36.38 117.82 36.38C119.3 36.38 120.52 35.84 121.48 34.76C122.48 33.68 122.98 32.5 122.98 31.22C122.98 29.9 122.5 28.68 121.54 27.56C120.62 26.44 119.36 25.88 117.76 25.88C116.2 25.88 114.92 26.44 113.92 27.56C112.96 28.68 112.48 29.9 112.48 31.22Z" fill="black"/>
  <path d="M148.943 19.58C150.823 16.74 153.083 15.32 155.723 15.32C159.803 15.32 162.843 17.06 164.843 20.54C165.283 19.94 165.803 19.32 166.403 18.68C167.043 18 168.043 17.28 169.403 16.52C170.763 15.72 172.163 15.32 173.603 15.32C176.803 15.32 179.483 16.56 181.643 19.04C183.803 21.48 184.883 25.54 184.883 31.22V41.72C184.883 42.64 184.843 43.34 184.763 43.82C184.723 44.26 184.543 44.78 184.223 45.38C183.703 46.46 182.163 47 179.603 47C177.083 47 175.543 46.44 174.983 45.32C174.703 44.72 174.523 44.2 174.443 43.76C174.403 43.28 174.383 42.58 174.383 41.66V31.16C174.383 27.68 173.143 25.94 170.663 25.94C169.263 25.94 168.303 26.4 167.783 27.32C167.303 28.24 167.063 29.54 167.063 31.22V41.72C167.063 42.68 167.023 43.38 166.943 43.82C166.903 44.26 166.723 44.78 166.403 45.38C165.843 46.46 164.283 47 161.723 47C159.203 47 157.663 46.44 157.103 45.32C156.823 44.72 156.643 44.2 156.563 43.76C156.523 43.28 156.503 42.58 156.503 41.66V31.16C156.503 27.68 155.263 25.94 152.783 25.94C150.383 25.94 149.183 27.68 149.183 31.16V41.78C149.183 42.7 149.143 43.4 149.063 43.88C149.023 44.32 148.843 44.84 148.523 45.44C147.923 46.48 146.363 47 143.843 47C141.323 47 139.783 46.46 139.223 45.38C138.943 44.78 138.763 44.26 138.683 43.82C138.643 43.38 138.623 42.68 138.623 41.72V20.6C138.623 19.68 138.643 19 138.683 18.56C138.763 18.08 138.963 17.56 139.283 17C139.883 15.92 141.303 15.38 143.543 15.38C145.783 15.38 147.243 15.74 147.923 16.46C148.603 17.18 148.943 18.22 148.943 19.58Z" fill="black"/>
  <path d="M17.98 15.38C21.98 15.38 25.3 16.92 27.94 20C30.62 23.04 31.96 26.76 31.96 31.16V41.72C31.96 42.64 31.92 43.34 31.84 43.82C31.8 44.26 31.64 44.76 31.36 45.32C30.8 46.4 29.24 46.94 26.68 46.94C23.84 46.94 22.2 46.2 21.76 44.72C21.52 44.04 21.4 43.02 21.4 41.66V31.1C21.4 29.46 20.92 28.18 19.96 27.26C19.04 26.34 17.78 25.88 16.18 25.88C14.62 25.88 13.34 26.36 12.34 27.32C11.38 28.28 10.9 29.54 10.9 31.1V41.72C10.9 42.64 10.86 43.34 10.78 43.82C10.74 44.26 10.56 44.76 10.24 45.32C9.72003 46.4 8.18003 46.94 5.62002 46.94C3.10002 46.94 1.56002 46.4 1.00002 45.32C0.720024 44.72 0.540024 44.2 0.460024 43.76C0.420024 43.28 0.400024 42.58 0.400024 41.66V20.42C0.400024 19.54 0.420024 18.88 0.460024 18.44C0.540024 17.96 0.740024 17.44 1.06002 16.88C1.62002 15.88 3.16002 15.38 5.68002 15.38C8.12002 15.38 9.62003 15.84 10.18 16.76C10.58 17.44 10.78 18.26 10.78 19.22C10.94 18.94 11.3 18.54 11.86 18.02C12.42 17.5 12.96 17.08 13.48 16.76C14.84 15.84 16.34 15.38 17.98 15.38Z" stroke="white" stroke-width="3" mask="url(#path-1-inside-1_1_153)"/>
  <path d="M57.3067 18.74C57.5467 16.5 59.1267 15.38 62.0467 15.38C63.6067 15.38 64.7667 15.5 65.5267 15.74C66.2867 15.98 66.8067 16.4 67.0867 17C67.4067 17.6 67.5867 18.14 67.6267 18.62C67.7067 19.06 67.7467 19.74 67.7467 20.66V41.66C67.7467 42.58 67.7067 43.28 67.6267 43.76C67.5867 44.2 67.4267 44.72 67.1467 45.32C66.5867 46.36 65.2067 46.88 63.0067 46.88C60.8467 46.88 59.3867 46.62 58.6267 46.1C57.9067 45.54 57.4867 44.74 57.3667 43.7C55.8867 45.82 53.4067 46.88 49.9267 46.88C46.4867 46.88 43.2867 45.3 40.3267 42.14C37.3667 38.98 35.8867 35.32 35.8867 31.16C35.8867 26.96 37.3667 23.3 40.3267 20.18C43.3267 17.02 46.6067 15.44 50.1667 15.44C51.5267 15.44 52.7667 15.68 53.8867 16.16C55.0067 16.64 55.7867 17.1 56.2267 17.54C56.6667 17.94 57.0267 18.34 57.3067 18.74ZM46.3867 31.22C46.3867 32.54 46.9067 33.74 47.9467 34.82C48.9867 35.86 50.2467 36.38 51.7267 36.38C53.2067 36.38 54.4267 35.84 55.3867 34.76C56.3867 33.68 56.8867 32.5 56.8867 31.22C56.8867 29.9 56.4067 28.68 55.4467 27.56C54.5267 26.44 53.2667 25.88 51.6667 25.88C50.1067 25.88 48.8267 26.44 47.8267 27.56C46.8667 28.68 46.3867 29.9 46.3867 31.22Z" stroke="white" stroke-width="3" mask="url(#path-1-inside-1_1_153)"/>
  <path d="M91.1289 31.16L99.1089 37.76C100.109 38.6 100.729 39.24 100.969 39.68C101.249 40.12 101.389 40.54 101.389 40.94C101.389 41.9 100.769 43.2 99.5289 44.84C98.1689 46.52 96.9689 47.36 95.9289 47.36C95.0489 47.36 93.8289 46.78 92.2689 45.62L91.6689 45.2C90.7489 44.44 89.3289 43.12 87.4089 41.24C85.4889 39.32 84.0289 37.96 83.0289 37.16V41.78C83.0289 42.7 82.9889 43.4 82.9089 43.88C82.8689 44.32 82.6889 44.84 82.3689 45.44C81.8489 46.48 80.3089 47 77.7489 47C75.2289 47 73.6889 46.46 73.1289 45.38C72.8489 44.78 72.6689 44.26 72.5889 43.82C72.5489 43.34 72.5289 42.64 72.5289 41.72V5.78C72.5289 4.86 72.5489 4.18 72.5889 3.74C72.6689 3.26 72.8489 2.72 73.1289 2.12C73.6889 1.04 75.2489 0.5 77.8089 0.5C79.7289 0.5 81.0889 0.84 81.8889 1.52C82.5689 2.08 82.9289 2.96 82.9689 4.16C83.0089 4.52 83.0289 5.08 83.0289 5.84V24.86C83.7489 24.26 84.8289 23.24 86.2689 21.8C87.7489 20.36 88.8489 19.34 89.5689 18.74L90.2889 18.26C91.6889 17.18 92.8889 16.64 93.8889 16.64C94.8889 16.64 96.0289 17.46 97.3089 19.1C98.6289 20.7 99.2889 21.96 99.2889 22.88C99.2889 23.8 98.5489 24.88 97.0689 26.12L91.1289 31.16Z" stroke="white" stroke-width="3" mask="url(#path-1-inside-1_1_153)"/>
  <path d="M123.4 18.74C123.64 16.5 125.22 15.38 128.14 15.38C129.701 15.38 130.861 15.5 131.62 15.74C132.38 15.98 132.9 16.4 133.18 17C133.501 17.6 133.681 18.14 133.721 18.62C133.801 19.06 133.84 19.74 133.84 20.66V41.66C133.84 42.58 133.801 43.28 133.721 43.76C133.681 44.2 133.52 44.72 133.24 45.32C132.68 46.36 131.3 46.88 129.1 46.88C126.94 46.88 125.48 46.62 124.72 46.1C124 45.54 123.58 44.74 123.46 43.7C121.98 45.82 119.5 46.88 116.02 46.88C112.58 46.88 109.38 45.3 106.42 42.14C103.46 38.98 101.98 35.32 101.98 31.16C101.98 26.96 103.46 23.3 106.42 20.18C109.42 17.02 112.7 15.44 116.26 15.44C117.62 15.44 118.86 15.68 119.98 16.16C121.1 16.64 121.88 17.1 122.32 17.54C122.76 17.94 123.12 18.34 123.4 18.74ZM112.48 31.22C112.48 32.54 113 33.74 114.04 34.82C115.08 35.86 116.34 36.38 117.82 36.38C119.3 36.38 120.52 35.84 121.48 34.76C122.48 33.68 122.98 32.5 122.98 31.22C122.98 29.9 122.5 28.68 121.54 27.56C120.62 26.44 119.36 25.88 117.76 25.88C116.2 25.88 114.92 26.44 113.92 27.56C112.96 28.68 112.48 29.9 112.48 31.22Z" stroke="white" stroke-width="3" mask="url(#path-1-inside-1_1_153)"/>
  <path d="M148.943 19.58C150.823 16.74 153.083 15.32 155.723 15.32C159.803 15.32 162.843 17.06 164.843 20.54C165.283 19.94 165.803 19.32 166.403 18.68C167.043 18 168.043 17.28 169.403 16.52C170.763 15.72 172.163 15.32 173.603 15.32C176.803 15.32 179.483 16.56 181.643 19.04C183.803 21.48 184.883 25.54 184.883 31.22V41.72C184.883 42.64 184.843 43.34 184.763 43.82C184.723 44.26 184.543 44.78 184.223 45.38C183.703 46.46 182.163 47 179.603 47C177.083 47 175.543 46.44 174.983 45.32C174.703 44.72 174.523 44.2 174.443 43.76C174.403 43.28 174.383 42.58 174.383 41.66V31.16C174.383 27.68 173.143 25.94 170.663 25.94C169.263 25.94 168.303 26.4 167.783 27.32C167.303 28.24 167.063 29.54 167.063 31.22V41.72C167.063 42.68 167.023 43.38 166.943 43.82C166.903 44.26 166.723 44.78 166.403 45.38C165.843 46.46 164.283 47 161.723 47C159.203 47 157.663 46.44 157.103 45.32C156.823 44.72 156.643 44.2 156.563 43.76C156.523 43.28 156.503 42.58 156.503 41.66V31.16C156.503 27.68 155.263 25.94 152.783 25.94C150.383 25.94 149.183 27.68 149.183 31.16V41.78C149.183 42.7 149.143 43.4 149.063 43.88C149.023 44.32 148.843 44.84 148.523 45.44C147.923 46.48 146.363 47 143.843 47C141.323 47 139.783 46.46 139.223 45.38C138.943 44.78 138.763 44.26 138.683 43.82C138.643 43.38 138.623 42.68 138.623 41.72V20.6C138.623 19.68 138.643 19 138.683 18.56C138.763 18.08 138.963 17.56 139.283 17C139.883 15.92 141.303 15.38 143.543 15.38C145.783 15.38 147.243 15.74 147.923 16.46C148.603 17.18 148.943 18.22 148.943 19.58Z" stroke="white" stroke-width="3" mask="url(#path-1-inside-1_1_153)"/>
</svg>