<svg xmlns="http://www.w3.org/2000/svg" width="50" height="50" viewBox="0 0 50 50" fill="none">
  <path d="M50 25C50 38.8071 38.8071 50 25 50C11.1929 50 0 38.8071 0 25C0 11.1929 11.1929 0 25 0C38.8071 0 50 11.1929 50 25Z" fill="#343434"/>
  <path d="M35.5331 20.4828C35.5483 20.7234 35.5483 20.9641 35.5483 21.2047C35.5483 28.5437 30.5991 37 21.5533 37C18.7665 37 16.1777 36.089 14 34.5078C14.396 34.5594 14.7766 34.5766 15.1878 34.5766C17.4873 34.5766 19.6041 33.7 21.2944 32.2047C19.132 32.1531 17.3198 30.5547 16.6954 28.3547C17 28.4062 17.3046 28.4406 17.6244 28.4406C18.066 28.4406 18.5077 28.3718 18.9188 28.2516C16.665 27.7359 14.9746 25.5016 14.9746 22.8031V22.7344C15.6294 23.1469 16.3909 23.4047 17.1979 23.439C15.873 22.4421 15.0051 20.7406 15.0051 18.8156C15.0051 17.7844 15.2487 16.839 15.6751 16.014C18.0964 19.3828 21.736 21.5827 25.8172 21.8234C25.7411 21.4109 25.6954 20.9813 25.6954 20.5516C25.6954 17.4922 27.8883 15 30.6142 15C32.0304 15 33.3096 15.6703 34.2081 16.7531C35.3198 16.5125 36.3858 16.0484 37.33 15.4125C36.9644 16.7016 36.1878 17.7844 35.1675 18.4719C36.1574 18.3516 37.1168 18.0422 38 17.6125C37.3301 18.7125 36.4924 19.6921 35.5331 20.4828Z" fill="#E6E6E6"/>
</svg>