<svg xmlns="http://www.w3.org/2000/svg" width="50" height="50" viewBox="0 0 50 50" fill="none">
  <path d="M50 25C50 38.8071 38.8071 50 25 50C11.1929 50 0 38.8071 0 25C0 11.1929 11.1929 0 25 0C38.8071 0 50 11.1929 50 25Z" fill="#343434"/>
  <path d="M32.7049 17.1969C30.6473 15.1344 27.9071 14 24.9951 14C18.9844 14 14.0933 18.8911 14.0933 24.9018C14.0933 26.8219 14.5942 28.6978 15.5469 30.3527L14 36L19.7799 34.4826C21.371 35.3518 23.1634 35.8085 24.9902 35.8085H24.9951C31.0009 35.8085 36 30.9174 36 24.9067C36 21.9946 34.7625 19.2594 32.7049 17.1969ZM24.9951 33.9719C23.3647 33.9719 21.7687 33.5348 20.379 32.7098L20.05 32.5134L16.6223 33.4121L17.5357 30.0679L17.3196 29.7241C16.4112 28.2804 15.9348 26.6156 15.9348 24.9018C15.9348 19.9076 20.0009 15.8415 25 15.8415C27.421 15.8415 29.6946 16.7844 31.4036 18.4982C33.1125 20.2121 34.1634 22.4857 34.1585 24.9067C34.1585 29.9058 29.9893 33.9719 24.9951 33.9719ZM29.9647 27.1853C29.6946 27.0478 28.354 26.3897 28.1036 26.3013C27.8531 26.208 27.6714 26.1638 27.4897 26.4388C27.308 26.7138 26.7875 27.3228 26.6254 27.5094C26.4683 27.6911 26.3062 27.7156 26.0362 27.5781C24.4353 26.7777 23.3844 26.1491 22.3286 24.3371C22.0487 23.8558 22.6085 23.8902 23.129 22.8491C23.2174 22.6674 23.1732 22.5103 23.1045 22.3728C23.0357 22.2353 22.4906 20.8946 22.2647 20.3496C22.0438 19.8192 21.8179 19.8929 21.6509 19.883C21.4937 19.8732 21.3121 19.8732 21.1304 19.8732C20.9487 19.8732 20.654 19.942 20.4036 20.2121C20.1531 20.4871 19.4509 21.1451 19.4509 22.4857C19.4509 23.8263 20.4281 25.1228 20.5607 25.3045C20.6982 25.4862 22.4808 28.2362 25.2161 29.4196C26.9446 30.1661 27.6223 30.2299 28.4866 30.1022C29.0121 30.0237 30.0973 29.4442 30.3232 28.8058C30.5491 28.1674 30.5491 27.6223 30.4804 27.5094C30.4165 27.3866 30.2348 27.3179 29.9647 27.1853Z" fill="#E6E6E6"/>
</svg>